<?xml version="1.0" encoding="UTF-8"?>
<svg width="1036px" height="612px" viewBox="0 0 1036 612" version="1.1" xmlns="http://www.w3.org/2000/svg" xmlns:xlink="http://www.w3.org/1999/xlink">
    <title>undraw_web_devices_ad58</title>
    <defs>
        <linearGradient x1="50%" y1="100.005469%" x2="50%" y2="-0.00273369574%" id="linearGradient-1">
            <stop stop-color="#808080" stop-opacity="0.25" offset="0%"></stop>
            <stop stop-color="#808080" stop-opacity="0.12" offset="54%"></stop>
            <stop stop-color="#808080" stop-opacity="0.1" offset="100%"></stop>
        </linearGradient>
        <linearGradient x1="49.9980158%" y1="100.011974%" x2="49.9980158%" y2="3.14375538e-06%" id="linearGradient-2">
            <stop stop-color="#808080" stop-opacity="0.25" offset="0%"></stop>
            <stop stop-color="#808080" stop-opacity="0.12" offset="54%"></stop>
            <stop stop-color="#808080" stop-opacity="0.1" offset="100%"></stop>
        </linearGradient>
        <linearGradient x1="49.9961829%" y1="99.9999929%" x2="49.9961829%" y2="7.11191695e-06%" id="linearGradient-3">
            <stop stop-color="#808080" stop-opacity="0.25" offset="0%"></stop>
            <stop stop-color="#808080" stop-opacity="0.12" offset="54%"></stop>
            <stop stop-color="#808080" stop-opacity="0.1" offset="100%"></stop>
        </linearGradient>
    </defs>
    <g id="Page-1" stroke="none" stroke-width="1" fill="none" fill-rule="evenodd">
        <g id="Desktop-HD" transform="translate(-202.000000, -120.000000)">
            <g id="undraw_web_devices_ad58" transform="translate(202.000000, 120.000000)">
                <path d="M151.4,0.07 C143.34,-0.16 135.08,0.07 127.52,2.39 C106.95,8.71 97.2,29.39 100.37,47.26 C103.54,65.13 116.58,80.7 130.11,94.93 C143.64,109.16 158.3,123.23 165.72,140.24 C169.42,148.73 171.15,158.24 167.39,166.72 C161.59,179.79 144.1,187.09 127.31,188.61 C110.52,190.13 93.66,187.17 76.81,186.18 C69.74,185.77 62.47,185.72 55.81,187.63 C48.5,189.71 42.41,193.96 36.81,198.39 C14.96,215.77 -2.53,239.48 0.3,264.39 C3.5,292.62 32.04,314.93 63.3,326.9 C73.65,330.9 84.6,334.08 93.71,339.74 C117.71,354.67 123.1,382.67 120.71,407.38 C118.32,432.09 110.18,456.83 114.71,481.32 C120.04,509.81 143.63,535.55 175.45,547.57 C203.8,558.28 239.28,557.57 264.45,542.46 C276.72,535.08 286,524.83 294.07,514.23 C306.052609,498.576268 315.952025,481.432967 323.52,463.23 C327.03,454.74 330.33,445.61 338.52,439.71 C343.52,436.08 350,434.05 356.41,432.47 C375.73,427.71 396.08,426.41 415.58,422.17 C435.08,417.93 454.7,410 465.3,395.9 C480.3,375.9 473.3,350.28 473.37,326.76 C473.49,273.1 512.48,225.07 526.87,172.76 C531.57,155.67 533.32,136.76 522.82,121.51 C515.69,111.16 503.66,103.69 491.02,97.92 C463.21,85.23 431.6,79.58 400.51,74.08 C357.3,66.44 304.83,65.45 271.34,40.73 C239.2,17 195.23,0.07 151.4,0.07 Z" id="Path" fill="#5CACF4" fill-rule="nonzero" opacity="0.2"></path>
                <ellipse id="Oval" fill="#F5F5F5" fill-rule="nonzero" cx="571" cy="487.48" rx="465" ry="124.52"></ellipse>
                <path d="M957.18,186.86 C957.18,186.86 921.35,222.69 941.58,275.86 C961.81,329.03 906.9,417.45 906.9,417.45 C906.9,417.45 907.49,417.36 908.58,417.17 C982.17,404.17 1018.74,320.01 977.82,257.48 C962.61,234.24 950.12,207 957.18,186.86 Z" id="Path" fill="#5CACF4" fill-rule="nonzero"></path>
                <path d="M957.18,186.86 C957.18,186.86 936.95,230.78 957.18,266.61 C977.41,302.44 960.65,403 906.9,417.45" id="Path" stroke="#535461" stroke-width="2"></path>
                <path d="M1021,331.79 C1021,331.79 980.11,325.28 976.39,361.92 C972.67,398.56 897.77,403.64 897.77,403.64 L899.17,404.57 C961.01,445.16 1020.17,430.43 1011.17,376.57 C1007.9,356.49 1008.17,336.36 1021,331.79 Z" id="Path" fill="#5CACF4" fill-rule="nonzero"></path>
                <path d="M1021,331.79 C1021,331.79 980.11,325.28 976.39,361.92 C972.67,398.56 897.77,403.64 897.77,403.64 L899.17,404.57 C961.01,445.16 1020.17,430.43 1011.17,376.57 C1007.9,356.49 1008.17,336.36 1021,331.79 Z" id="Path" fill="#F5F5F5" fill-rule="nonzero" opacity="0.2"></path>
                <path d="M1021,331.79 C1021,331.79 989.26,338.79 991.87,367.61 C994.48,396.43 944.74,431.06 897.77,403.61" id="Path" stroke="#535461" stroke-width="2"></path>
                <path d="M926.37,419.92 L862.13,419.92 C863.608339,416.946742 864.375192,413.670501 864.37,410.35 L864.37,117.79 C864.37,105.910355 854.739645,96.2799977 842.86,96.2799977 L345.52,96.2799977 C339.813461,96.2799977 334.339739,98.5424014 330.303668,102.576597 C326.267598,106.610792 323.999999,112.08346 324,117.79 L324,410.36 C323.994808,413.680501 324.761661,416.956742 326.24,419.93 L259.73,419.93 C256.5875,419.93 254.04,422.4775 254.04,425.62 L254.04,430.21 C254.056558,447.771984 268.298008,462 285.86,462 L900.24,462 C917.813701,462 932.06,447.753701 932.06,430.18 L932.06,425.59 C932.048982,422.455313 929.504706,419.919981 926.37,419.92 L926.37,419.92 Z M530.48,438.12 L525,431.87 L661.72,431.87 L655.62,438.13 L530.48,438.12 Z" id="Shape" fill="url(#linearGradient-1)" fill-rule="nonzero"></path>
                <rect id="Rectangle" fill="#535461" fill-rule="nonzero" x="330.11" y="100.42" width="528.12" height="327.99" rx="23.26"></rect>
                <rect id="Rectangle" fill="#FFFFFF" fill-rule="nonzero" x="341.22" y="148.23" width="504.77" height="267.95"></rect>
                <circle id="Oval" fill="#FFFFFF" fill-rule="nonzero" cx="593.61" cy="124.88" r="4.45"></circle>
                <path d="M671.55,416.73 L654.2,434.52 L531.9,434.52 L516.23,416.73 L267.29,416.73 C264.219297,416.73 261.73,419.219297 261.73,422.29 L261.73,426.77 C261.73,443.946056 275.653944,457.87 292.83,457.87 L893.28,457.87 C910.456056,457.87 924.38,443.946056 924.38,426.77 L924.38,422.29 C924.38,419.219297 921.890703,416.73 918.82,416.73 L671.55,416.73 Z" id="Path" fill="#535461" fill-rule="nonzero"></path>
                <path d="M498.41,157.64999 L285.48,157.64999 C274.708822,157.638946 265.966557,166.358829 265.95,177.13 L265.95,472.13 C265.966557,482.901171 274.708822,491.621054 285.48,491.61001 L498.41,491.61001 C509.181178,491.621054 517.923443,482.901171 517.94,472.13 L517.94,177.13 C517.923443,166.358829 509.181178,157.638946 498.41,157.64999 Z" id="Path" fill="url(#linearGradient-2)" fill-rule="nonzero"></path>
                <rect id="Rectangle" fill="#535461" fill-rule="nonzero" x="268.94" y="161.65" width="246" height="327" rx="20"></rect>
                <rect id="Rectangle" fill="#FFFFFF" fill-rule="nonzero" x="281.44" y="192.58" width="221" height="265.14"></rect>
                <circle id="Oval" fill="#FFFFFF" fill-rule="nonzero" cx="390.94" cy="176.65" r="3"></circle>
                <circle id="Oval" fill="#FFFFFF" fill-rule="nonzero" cx="390.94" cy="472.65" r="9"></circle>
                <path d="M336.11,257.649981 L226.78,257.649981 C223.913008,257.644691 221.161332,258.77851 219.130312,260.802028 C217.099292,262.825547 215.955299,265.573008 215.95,268.44 L215.95,507.86 C215.955299,510.726992 217.099292,513.474453 219.130312,515.497972 C221.161332,517.52149 223.913008,518.655309 226.78,518.650019 L336.11,518.650019 C338.976992,518.655309 341.728668,517.52149 343.759688,515.497972 C345.790708,513.474453 346.934701,510.726992 346.94,507.86 L346.94,268.44 C346.934701,265.573008 345.790708,262.825547 343.759688,260.802028 C341.728668,258.77851 338.976992,257.644691 336.11,257.649981 L336.11,257.649981 Z" id="Path" fill="url(#linearGradient-3)" fill-rule="nonzero"></path>
                <rect id="Rectangle" fill="#535461" fill-rule="nonzero" x="216.94" y="259.65" width="129" height="258" rx="11"></rect>
                <rect id="Rectangle" fill="#FFFFFF" fill-rule="nonzero" x="226.44" y="283.65" width="110" height="210"></rect>
                <circle id="Oval" fill="#FFFFFF" fill-rule="nonzero" cx="268.44" cy="271.65" r="1"></circle>
                <rect id="Rectangle" fill="#FFFFFF" fill-rule="nonzero" x="273.44" y="270.65" width="22" height="2" rx="1"></rect>
                <circle id="Oval" fill="#FFFFFF" fill-rule="nonzero" cx="280.94" cy="503.65" r="7"></circle>
                <path d="M203.73,536.25 C203.73,536.25 190.47,491.25 206.22,458.11 C212.924463,444.257611 214.952706,428.603643 212,413.5 C210.540175,406.345294 208.428016,399.339355 205.69,392.57" id="Path" stroke="#535461" stroke-width="2"></path>
                <path d="M215.45,371.63 C215.45,377.15 205.45,393.14 205.45,393.14 C205.45,393.14 195.45,377.14 195.45,371.63 C195.45,366.107153 199.927153,361.63 205.45,361.63 C210.972847,361.63 215.45,366.107153 215.45,371.63 Z" id="Path" fill="#5CACF4" fill-rule="nonzero"></path>
                <path d="M232,402.19 C229,406.82 211.92,414.82 211.92,414.82 C211.92,414.82 212.23,395.96 215.23,391.33 C217.088377,388.152262 220.542385,386.252506 224.221258,386.384673 C227.900132,386.51684 231.208911,388.659555 232.834465,391.962456 C234.460019,395.265357 234.139458,399.194286 232,402.19 Z" id="Path" fill="#5CACF4" fill-rule="nonzero"></path>
                <path d="M231.24,454.4 C226.31,456.88 207.53,455.17 207.53,455.17 C207.53,455.17 217.32,439.05 222.24,436.57 C227.121099,434.364619 232.873136,436.396741 235.285639,441.178859 C237.698143,445.960977 235.914354,451.794805 231.24,454.41 L231.24,454.4 Z" id="Path" fill="#5CACF4" fill-rule="nonzero"></path>
                <path d="M221.8,493.79 C217.36,497.07 198.56,498.55 198.56,498.55 C198.56,498.55 205.48,481.01 209.92,477.73 C214.357304,474.769596 220.337079,475.813179 223.50933,480.101592 C226.68158,484.390005 225.929416,490.413377 221.8,493.79 L221.8,493.79 Z" id="Path" fill="#5CACF4" fill-rule="nonzero"></path>
                <path d="M190.91,415.89 C194.91,419.73 213.3,423.72 213.3,423.72 C213.3,423.72 208.79,405.41 204.83,401.57 C202.310485,398.880969 198.516274,397.795464 194.955774,398.745034 C191.395274,399.694604 188.645512,402.525357 187.79967,406.111915 C186.953827,409.698472 188.148984,413.459583 190.91,415.9 L190.91,415.89 Z" id="Path" fill="#5CACF4" fill-rule="nonzero"></path>
                <path d="M180.45,462.09 C185.38,464.57 204.16,462.86 204.16,462.86 C204.16,462.86 194.37,446.74 189.45,444.26 C186.242878,442.465688 182.309995,442.575034 179.207525,444.54477 C176.105054,446.514507 174.332946,450.02722 174.592391,453.69299 C174.851837,457.358761 177.101029,460.586866 180.45,462.1 L180.45,462.09 Z" id="Path" fill="#5CACF4" fill-rule="nonzero"></path>
                <path d="M176.45,508.39 C180.89,511.67 199.69,513.15 199.69,513.15 C199.69,513.15 192.77,495.61 188.33,492.33 C183.892696,489.369596 177.912921,490.413179 174.74067,494.701592 C171.56842,498.990005 172.320584,505.013377 176.45,508.39 L176.45,508.39 Z" id="Path" fill="#5CACF4" fill-rule="nonzero"></path>
            </g>
        </g>
    </g>
</svg>