<?xml version="1.0" encoding="UTF-8"?>
<svg width="937px" height="611px" viewBox="0 0 937 611" version="1.1" xmlns="http://www.w3.org/2000/svg" xmlns:xlink="http://www.w3.org/1999/xlink">
    <title>undraw_website_setup_5hr2</title>
    <defs>
        <linearGradient x1="49.9981717%" y1="99.9973366%" x2="49.9981717%" y2="0.0136658847%" id="linearGradient-1">
            <stop stop-color="#808080" stop-opacity="0.25" offset="0%"></stop>
            <stop stop-color="#808080" stop-opacity="0.12" offset="54%"></stop>
            <stop stop-color="#808080" stop-opacity="0.1" offset="100%"></stop>
        </linearGradient>
        <linearGradient x1="49.9993122%" y1="100%" x2="49.9993122%" y2="0%" id="linearGradient-2">
            <stop stop-color="#808080" stop-opacity="0.25" offset="0%"></stop>
            <stop stop-color="#808080" stop-opacity="0.12" offset="54%"></stop>
            <stop stop-color="#808080" stop-opacity="0.1" offset="100%"></stop>
        </linearGradient>
        <linearGradient x1="50.0405783%" y1="100.08431%" x2="50.0405783%" y2="-0.162958409%" id="linearGradient-3">
            <stop stop-color="#808080" stop-opacity="0.25" offset="0%"></stop>
            <stop stop-color="#808080" stop-opacity="0.12" offset="54%"></stop>
            <stop stop-color="#808080" stop-opacity="0.1" offset="100%"></stop>
        </linearGradient>
    </defs>
    <g id="Page-1" stroke="none" stroke-width="1" fill="none" fill-rule="evenodd">
        <g id="Desktop-HD" transform="translate(-154.000000, -194.000000)">
            <g id="undraw_website_setup_5hr2" transform="translate(154.000000, 194.000000)">
                <path d="M894.3,522.25 C892.58,515.15 886.93,509.8 882.77,503.79 C872.588031,488.699718 871.412093,469.268013 879.7,453.06 C883.7,445.45 889.97,437.58 887.7,429.27 C886.18,423.68 881.13,419.85 876.17,416.85 C857.327512,405.502481 835.579144,399.909846 813.6,400.76 C786.66,401.86 759.81,412.62 733.39,407.29 C707.66,402.08 685.86,389.18 658.94,387.65 C638.83,386.51 618.94,387.79 598.79,385.59 C549.002501,380.189077 498.848536,378.99151 448.86,382.01 C398.874787,378.992073 348.72419,380.189639 298.94,385.59 C278.84,387.79 258.94,386.51 238.79,387.65 C211.79,389.17 190.04,402.09 164.3,407.29 C137.87,412.63 111.03,401.86 84.09,400.76 C62.1108557,399.909846 40.3624884,405.502481 21.52,416.85 C16.52,419.85 11.52,423.68 9.99,429.27 C7.73,437.57 13.99,445.44 17.99,453.06 C26.2838179,469.264426 25.115549,488.695993 14.94,503.79 C10.78,509.79 5.13,515.15 3.41,522.25 C-0.05,536.53 13.83,549.11 27.41,554.78 C64.46,570.27 109.52,562.78 143.41,584.35 C158.6,594.03 171.89,609.57 189.89,610.15 C202.06,610.54 213.13,603.78 223.76,597.83 C239.667132,588.924739 256.295876,581.374734 273.47,575.26 C288.47,569.92 304.36,565.64 320.19,567.41 C344.36,570.08 448.84,620.56 495.94,590.73 C528.2,570.28 553.36,570.11 577.59,567.4 C593.42,565.63 609.3,569.91 624.31,575.25 C641.484124,581.364734 658.112868,588.914739 674.02,597.82 C684.64,603.77 695.72,610.53 707.89,610.14 C725.89,609.56 739.18,594.02 754.37,584.34 C788.24,562.76 833.29,570.26 870.37,554.77 C883.88,549.08 897.77,536.54 894.3,522.25 Z" id="Path" fill="url(#linearGradient-1)" fill-rule="nonzero" opacity="0.5"></path>
                <path d="M889.4,521.96 C887.7,514.96 882.11,509.64 878,503.7 C867.950856,488.766582 866.802039,469.554534 875,453.53 C879,446 885.16,438.22 882.92,430.01 C881.41,424.48 876.42,420.69 871.52,417.73 C852.886002,406.505248 831.377484,400.971705 809.64,401.81 C783,402.89 756.45,413.54 730.31,408.26 C704.85,403.12 683.31,390.34 656.64,388.83 C636.75,387.71 617.04,388.97 597.16,386.83 C547.920398,381.488784 498.318389,380.304597 448.88,383.29 C399.441611,380.304597 349.839602,381.488784 300.6,386.83 C280.72,389.01 261.01,387.74 241.12,388.83 C214.46,390.33 192.91,403.11 167.45,408.26 C141.32,413.54 114.76,402.89 88.12,401.81 C66.3825157,400.971705 44.8739985,406.505248 26.24,417.73 C21.34,420.73 16.35,424.48 14.84,430.01 C12.6,438.22 18.84,446.01 22.76,453.53 C30.9579608,469.554534 29.8091439,488.766582 19.76,503.7 C15.64,509.64 10.06,514.93 8.36,521.96 C4.85,536.08 18.58,548.52 31.99,554.08 C68.64,569.39 113.2,561.98 146.69,583.32 C161.69,592.89 174.86,608.27 192.69,608.84 C204.69,609.23 215.69,602.54 226.19,596.65 C241.92407,587.839521 258.372195,580.369791 275.36,574.32 C290.21,569.03 305.91,564.8 321.57,566.55 C345.57,569.23 448.87,619.12 495.41,589.62 C527.32,569.4 552.2,569.23 576.16,566.55 C591.82,564.8 607.53,569.03 622.37,574.32 C639.357805,580.369791 655.80593,587.839521 671.54,596.65 C682.05,602.53 693,609.22 705.04,608.84 C722.84,608.27 735.99,592.9 751.04,583.32 C784.54,561.98 829.1,569.39 865.74,554.08 C879.1,548.52 892.83,536.08 889.4,521.96 Z" id="Path" fill="#E6EAF0" fill-rule="nonzero"></path>
                <path d="M34.94,219.22 C37.8,218.22 40.84,217.27 43.83,217.79 C48.83,218.66 52.34,223.4 53.83,228.27 C55.32,233.14 55.27,238.27 56.22,243.27 C57.17,248.27 59.44,253.44 63.92,255.83 C68.4,258.22 73.69,257.28 78.66,256.7 C85.1786963,255.948235 91.7586142,255.8879 98.29,256.52 C103.77,257.05 110.21,258.9 111.82,264.17 C113.14,268.47 110.52,272.86 108.82,277.01 C105.56,284.77 105.3,293.94 109.03,301.48 C112.76,309.02 120.32,314.64 123.48,322.6 C124.395596,324.590947 124.661487,326.819527 124.24,328.97 C123.77263,330.475841 123.003693,331.870815 121.98,333.07 C119.5,336.26 116.54,339.07 114.28,342.43 C109.57,349.43 108.28,358.13 107.74,366.54 C107.20137,374.809621 107.248153,383.106979 107.88,391.37 C101.74,389.37 94.96,391.15 88.63,389.84 C75.16,387.06 66.75,371.12 53.03,370.15 C46.54,369.69 39.56,372.75 33.77,369.78 C31.0038781,368.186191 28.8391851,365.726313 27.61,362.78 C25.1628043,357.564952 24.6042712,351.661469 26.03,346.08 C27.03,342.22 29.03,338.44 28.64,334.47 C28.31,331.07 26.27,328.07 23.93,325.58 C17.26,318.5 7.58,314.17 2.79,305.7 C-1.66948916,297.464336 -0.600353078,287.333378 5.48,280.21 C7.18960571,278.541193 8.8085918,276.782006 10.33,274.94 C12.63,271.7 13.33,267.61 13.64,263.64 C14.3,254.13 12.64,244.06 15.75,234.82 C18.54,226.46 27.06,222.02 34.94,219.22 Z" id="Path" fill="#E6EAF0" fill-rule="nonzero" opacity="0.6"></path>
                <path d="M35.08,219.5 C35.08,219.5 62.39,371.17 97.85,389.26" id="Path" stroke="#535461" opacity="0.6"></path>
                <path d="M111.06,261.48 C111.06,261.48 81.81,265.48 52.59,295.53" id="Path" stroke="#535461" opacity="0.6"></path>
                <path d="M57.73,313.15 C57.73,313.15 35.22,291.15 0.05,294.88" id="Path" stroke="#535461" opacity="0.6"></path>
                <path d="M123.94,322.72 C123.94,322.72 82.86,326.21 67.65,341.98" id="Path" stroke="#535461" opacity="0.6"></path>
                <path d="M73.8,356.67 C73.8,356.67 50.8,352.67 29.57,366.22" id="Path" stroke="#535461" opacity="0.6"></path>
                <path d="M880.43,100.08 C875.84,98.45 870.97,96.96 866.18,97.79 C858.18,99.19 852.54,106.79 850.18,114.58 C847.82,122.37 847.87,130.68 846.35,138.68 C844.83,146.68 841.19,154.97 834.01,158.81 C826.83,162.65 818.35,161.13 810.38,160.21 C799.940869,158.993046 789.402375,158.882432 778.94,159.88 C770.15,160.73 759.84,163.7 757.26,172.14 C755.15,179.04 759.34,186.06 762.14,192.71 C767.37,205.14 767.79,219.85 761.8,231.94 C755.71,244.24 743.7,253.04 738.64,265.79 C737.36,269.03 736.55,272.62 737.42,275.99 C738.170478,278.407138 739.405602,280.646012 741.05,282.57 C745.05,287.69 749.77,292.2 753.39,297.57 C760.94,308.77 762.99,322.73 763.87,336.21 C764.73433,349.461948 764.660813,362.75842 763.65,376 C773.49,372.76 784.37,375.65 794.51,373.56 C816.1,369.11 829.58,343.56 851.57,342 C861.97,341.27 873.16,346.16 882.44,341.4 C886.96,339.08 890.17,334.75 892.32,330.14 C896.178487,321.783686 897.023038,312.348746 894.71,303.44 C893.08,297.25 889.91,291.2 890.53,284.83 C891.06,279.38 894.32,274.57 898.08,270.59 C908.77,259.24 924.29,252.3 931.97,238.73 C939.17,226.01 937.35,208.8 927.66,197.87 C925.12,195 922.1,192.54 919.88,189.42 C916.19,184.23 915.01,177.67 914.57,171.31 C913.52,156.06 916.11,139.93 911.18,125.12 C906.68,111.64 893.03,104.51 880.43,100.08 Z" id="Path" fill="#E6EAF0" fill-rule="nonzero" opacity="0.6"></path>
                <path d="M880.17,100.48 C880.17,100.48 836.4,343.59 779.55,372.58" id="Path" stroke="#535461" opacity="0.6"></path>
                <path d="M758.38,167.77 C758.38,167.77 805.26,174.21 852.1,222.36" id="Path" stroke="#535461" opacity="0.6"></path>
                <path d="M843.86,250.59 C843.86,250.59 879.95,215.3 936.31,221.3" id="Path" stroke="#535461" opacity="0.6"></path>
                <path d="M737.79,265.93 C737.79,265.93 803.63,271.52 828.01,296.81" id="Path" stroke="#535461" opacity="0.6"></path>
                <path d="M818.11,320.35 C818.11,320.35 855,313.89 889.01,335.65" id="Path" stroke="#535461" opacity="0.6"></path>
                <polygon id="Path" fill="url(#linearGradient-2)" fill-rule="nonzero" points="74.91 0 74.91 24.99 74.91 495.2 801.84 495.2 801.84 24.99 801.84 0"></polygon>
                <rect id="Rectangle" fill="#FFFFFF" fill-rule="nonzero" x="85.69" y="22.47" width="708.45" height="463.77"></rect>
                <rect id="Rectangle" fill="#EEEEEE" fill-rule="nonzero" x="85.69" y="0.41" width="708.45" height="34.12"></rect>
                <circle id="Oval" fill="#FF5252" fill-rule="nonzero" cx="112.65" cy="16.95" r="8.27"></circle>
                <circle id="Oval" fill="#FFFF00" fill-rule="nonzero" cx="135.4" cy="16.95" r="8.27"></circle>
                <circle id="Oval" fill="#69F0AE" fill-rule="nonzero" cx="158.15" cy="16.95" r="8.27"></circle>
                <rect id="Rectangle" fill="#E6EAF0" fill-rule="nonzero" opacity="0.5" x="112.84" y="89.18" width="264" height="11"></rect>
                <rect id="Rectangle" fill="#E6EAF0" fill-rule="nonzero" opacity="0.5" x="112.84" y="111.18" width="264" height="11"></rect>
                <rect id="Rectangle" fill="#E6EAF0" fill-rule="nonzero" opacity="0.5" x="112.84" y="133.18" width="264" height="11"></rect>
                <rect id="Rectangle" fill="#E6EAF0" fill-rule="nonzero" opacity="0.5" x="203.84" y="155.18" width="173" height="11"></rect>
                <rect id="Rectangle" fill="#E6EAF0" fill-rule="nonzero" opacity="0.5" x="112.84" y="177.18" width="139" height="11"></rect>
                <rect id="Rectangle" fill="#E6EAF0" fill-rule="nonzero" opacity="0.5" x="187.84" y="199.18" width="107" height="11"></rect>
                <rect id="Rectangle" fill="#E6EAF0" fill-rule="nonzero" opacity="0.5" x="411.84" y="166.18" width="311" height="179"></rect>
                <rect id="Rectangle" fill="#EEEEEE" fill-rule="nonzero" x="448.84" y="183.18" width="311" height="179"></rect>
                <path d="M622.84,362.18 L448.84,362.18 L448.84,329.39 C491.35,309.52 556.76,298.36 622.84,362.18 Z" id="Path" fill="#E6EAF0" fill-rule="nonzero"></path>
                <g id="Group" opacity="0.1" transform="translate(540.000000, 313.000000)" fill="#000000" fill-rule="nonzero">
                    <path d="M217.84,44.49 L217.84,49.18 L0.84,49.18 L0.84,48.18 C0.84,48.18 107.62,-55.79 217.84,44.49 Z" id="Path"></path>
                </g>
                <path d="M759.84,357.49 L759.84,362.18 L542.84,362.18 L542.84,361.18 C542.84,361.18 649.62,257.21 759.84,357.49 Z" id="Path" fill="#E6EAF0" fill-rule="nonzero"></path>
                <circle id="Oval" fill="#E6EAF0" fill-rule="nonzero" cx="484.84" cy="215.18" r="16"></circle>
                <path d="M621.06,203.08 C619.23,203.08 617.19,203.08 615.8,203.19 C615.17857,203.224184 614.565449,203.34883 613.98,203.56 L604.57,206.94 C612.17,207.13 620.1,207.07 627.89,207.01 L671.57,206.67 C676.03,206.67 680.71,206.59 684.42,206.33 C686.91,206.15 688.74,205.89 691.04,205.69 C699.31,204.95 711.36,205.09 722.13,205.13 C732.9,205.17 745.9,204.89 749.69,203.81 L726.57,203.81 C724.08,203.81 721.46,203.81 719.26,203.69 C716.69,203.54 715.12,203.26 712.86,203.06 C709.12,202.74 703.96,202.7 699.16,202.68 C672.81,202.57 646.79,203.19 621.06,203.08 Z" id="Path" fill="#F4F4F4" fill-rule="nonzero"></path>
                <path d="M646.94,222.46 C646.54,222.46 646.1,222.46 645.8,222.46 C645.663458,222.466851 645.528674,222.493807 645.4,222.54 L643.4,223.27 C645.05,223.27 646.76,223.27 648.45,223.27 L657.91,223.2 C658.91,223.2 659.91,223.2 660.69,223.13 C661.23,223.13 661.63,223.03 662.12,222.99 C663.91,222.83 666.52,222.86 668.86,222.87 C670.864564,222.93736 672.871277,222.840368 674.86,222.58 L669.86,222.58 C669.32,222.58 668.75,222.58 668.28,222.58 C667.81,222.58 667.38,222.49 666.89,222.44 C666.08,222.37 664.96,222.36 663.89,222.36 C658.19,222.36 652.55,222.49 646.94,222.46 Z" id="Path" fill="#F4F4F4" fill-rule="nonzero"></path>
                <path d="M579.94,250.46 C579.54,250.46 579.1,250.46 578.8,250.46 C578.663458,250.466851 578.528674,250.493807 578.4,250.54 L576.4,251.27 C578.05,251.27 579.76,251.27 581.45,251.27 L590.91,251.2 C591.91,251.2 592.91,251.2 593.69,251.13 C594.23,251.13 594.63,251.03 595.12,250.99 C596.91,250.83 599.52,250.86 601.86,250.87 C603.864564,250.93736 605.871277,250.840368 607.86,250.58 L602.86,250.58 C602.32,250.58 601.75,250.58 601.28,250.58 C600.81,250.58 600.38,250.49 599.89,250.44 C599.08,250.37 597.96,250.36 596.89,250.36 C591.19,250.36 585.55,250.49 579.94,250.46 Z" id="Path" fill="#F4F4F4" fill-rule="nonzero"></path>
                <path d="M542.35,353.31 L534.83,353.31 C534.83,353.31 532.48,271.07 542.35,245.69 L544.23,245.69 C544.23,245.69 537.65,338.74 542.35,353.31 Z" id="Path" fill="#E6EAF0" fill-rule="nonzero"></path>
                <path d="M537.18,241.46 C537.18,241.46 531.07,258.38 533.89,265.9 C533.89,265.9 538.12,250.39 543.05,248.04 C547.98,245.69 553.15,265.9 553.15,265.9 C553.15,265.9 555.97,253.21 550.8,242.9 C550.8,242.9 561.14,248.54 566.31,259.35 C566.31,259.35 567.25,252.35 555.03,237.73 C555.03,237.73 565.84,240.55 572.89,247.13 C572.89,247.13 575.24,241.96 560.67,233.5 C560.67,233.5 562.55,227.39 573.83,230.21 C573.83,230.21 573.83,222.21 555.97,223.63 C555.97,223.63 555.97,218.46 567.72,219.4 C567.72,219.4 567.72,212.82 554.09,215.17 C554.09,215.17 556.91,210.94 558.79,210 C556.43882,209.782609 554.091437,210.45329 552.21,211.88 C552.21,211.88 552.68,203.42 545.63,200.13 L544.69,211.88 C544.69,211.88 536.79,202.57 538.58,204.36 C539.05,204.83 540.46,210.47 539.99,213.29 C539.99,213.29 531.99,206.71 522.13,213.76 C522.13,213.76 534.35,214.7 536.23,218.93 C536.23,218.93 525.89,217.05 523.54,218.46 C523.54,218.46 531.54,221.28 531.06,223.16 C531.06,223.16 516.96,223.16 515.06,228.33 C515.06,228.33 529.63,230.21 530.57,231.62 C530.57,231.62 513.65,243.84 512.71,247.13 C512.71,247.13 530.1,236.79 532.92,236.79 C535.74,236.79 520.23,251.79 521.17,255.59 C521.21,255.56 533.94,240.52 537.18,241.46 Z" id="Path" fill="#E6EAF0" fill-rule="nonzero"></path>
                <path d="M635.1,350.23 L640.84,350.23 C640.84,350.23 642.64,287.4 635.1,268.01 L633.66,268.01 C633.66,268.01 638.7,339.08 635.1,350.23 Z" id="Path" fill="#E6EAF0" fill-rule="nonzero"></path>
                <path d="M639.05,264.78 C639.05,264.78 643.72,277.71 641.56,283.45 C641.56,283.45 638.33,271.6 634.56,269.81 C630.79,268.02 626.84,283.45 626.84,283.45 C626.84,283.45 624.69,273.76 628.64,265.86 C623.585978,268.851583 619.478619,273.208502 616.79,278.43 C616.79,278.43 616.07,273.04 625.41,261.91 C625.41,261.91 617.15,264.06 611.77,269.09 C611.77,269.09 609.97,265.14 621.11,258.68 C621.11,258.68 619.67,254.01 611.06,256.17 C611.06,256.17 611.06,250.07 624.7,251.17 C624.7,251.17 624.7,247.22 615.7,247.94 C615.7,247.94 615.7,242.94 626.11,244.71 C626.11,244.71 623.96,241.48 622.52,240.76 C624.307712,240.601887 626.090232,241.115252 627.52,242.2 C627.52,242.2 627.16,235.74 632.52,233.2 L633.24,242.2 C633.24,242.2 639.24,235.09 637.91,236.46 C637.049969,238.625462 636.681106,240.954767 636.83,243.28 C636.83,243.28 642.93,238.28 650.47,243.64 C650.47,243.64 641.13,244.36 639.7,247.59 C639.7,247.59 647.6,246.15 649.39,247.23 C649.39,247.23 643.29,249.38 643.65,250.82 C643.65,250.82 654.42,250.82 655.86,254.77 C655.86,254.77 644.73,256.21 644.01,257.28 C644.01,257.28 656.94,266.62 657.65,269.13 C657.65,269.13 644.37,261.23 642.21,261.23 C640.05,261.23 651.9,272.72 651.21,275.59 C651.26,275.55 641.57,264.08 639.05,264.78 Z" id="Path" fill="#E6EAF0" fill-rule="nonzero"></path>
                <path d="M703.83,337.95 L707.39,337.95 C707.39,337.95 708.5,299.04 703.83,287.03 L702.94,287.03 C702.94,287.03 706.05,331.08 703.83,337.95 Z" id="Path" fill="#E6EAF0" fill-rule="nonzero"></path>
                <path d="M706.28,285.03 C706.28,285.03 709.17,293.03 707.84,296.59 C707.84,296.59 705.84,289.25 703.5,288.14 C701.16,287.03 698.72,296.59 698.72,296.59 C698.72,296.59 697.39,290.59 699.83,285.69 C696.700262,287.541323 694.15619,290.2379 692.49,293.47 C692.49,293.47 692.05,290.13 697.83,283.24 C694.728046,284.103328 691.846832,285.620654 689.38,287.69 C689.38,287.69 688.27,285.24 695.16,281.24 C695.16,281.24 694.27,278.35 688.93,279.68 C688.93,279.68 688.93,275.9 697.38,276.57 C697.38,276.57 697.38,274.12 691.82,274.57 C691.82,274.57 691.82,271.46 698.27,272.57 C697.674558,271.633146 696.923811,270.804618 696.05,270.12 C697.161423,270.018003 698.270797,270.335476 699.16,271.01 C699.16,271.01 698.94,267.01 702.27,265.45 L702.71,271.01 C702.71,271.01 706.45,266.61 705.6,267.45 C705.067392,268.789825 704.838565,270.231097 704.93,271.67 C707.470507,269.818174 710.939296,269.908485 713.38,271.89 C713.38,271.89 707.6,272.33 706.71,274.34 C706.71,274.34 711.6,273.45 712.71,274.12 C712.71,274.12 708.93,275.45 709.15,276.34 C709.15,276.34 715.82,276.34 716.71,278.79 C716.71,278.79 709.82,279.68 709.37,280.35 C709.37,280.35 717.37,286.13 717.82,287.69 C717.82,287.69 709.59,282.8 708.26,282.8 C706.93,282.8 714.26,289.92 713.82,291.69 C713.84,291.7 707.83,284.58 706.28,285.03 Z" id="Path" fill="#E6EAF0" fill-rule="nonzero"></path>
                <path d="M573.83,293.95 L573.83,293.95 L573.08,289.95 C573.077917,289.355624 572.832119,288.788119 572.4,288.38 L568.93,286.68 L568.93,286.68 C568.674323,286.379668 568.465315,286.042557 568.31,285.68 L568.37,285.59 C568.561064,285.352565 568.697618,285.076044 568.77,284.78 C568.7764,284.703467 568.7764,284.626533 568.77,284.55 L568.82,284.55 C569.484008,284.63852 570.105281,284.204063 570.25,283.55 L570.25,283.46 C570.123349,284.014965 569.647917,284.421316 569.08,284.46 C570.060795,283.80307 570.649597,282.700472 570.65,281.52 C570.65,281.52 570.65,281.42 570.65,281.37 C570.959831,281.180084 571.174332,280.867423 571.24,280.51 L571.24,280.42 C571.154376,280.758745 570.933998,281.047765 570.63,281.22 C570.605799,280.877726 570.531681,280.540829 570.41,280.22 L570.5,280.22 C571.212447,280.22 571.79,279.642447 571.79,278.93 C571.79,278.93 571.79,278.87 571.79,278.84 C571.742924,279.513244 571.184879,280.036412 570.51,280.04 L570.35,280.04 L570.35,279.98 C571.132937,279.744832 571.709581,279.078575 571.83,278.27 C571.83,278.27 571.83,278.21 571.83,278.18 C571.812891,278.430524 571.722472,278.670482 571.57,278.87 C571.605289,278.20609 571.130216,277.624099 570.472686,277.525728 C569.815157,277.427357 569.190558,277.844831 569.03,278.49 L568.8,278.36 C568.947631,277.832002 569.41287,277.454999 569.96,277.419959 L569.87,277.419959 C569.315654,277.415585 568.820473,277.765836 568.64,278.29 C567.041973,277.547043 565.140814,278.092667 564.18,279.57 C563.91,279.77 563.56,280.06 563.57,280.31 C563.454218,280.42598 563.350364,280.553284 563.26,280.69 C562.879274,281.524984 562.74068,282.450103 562.86,283.36 C562.972037,284.277928 562.628533,285.192694 561.94,285.81 C562.240755,285.935556 562.579245,285.935556 562.88,285.81 C563.177271,285.684394 563.456412,285.5196 563.71,285.32 C563.946638,285.176279 564.148207,284.981543 564.3,284.75 L564.3,284.7 C564.466594,284.811267 564.644196,284.905095 564.83,284.98 C564.9,285.58 564.92,286.27 564.65,286.5 L564.65,286.5 L564.65,286.5 L564.7,286.39 C564.055434,286.875208 563.25344,287.103331 562.45,287.03 C561.463654,287.085656 560.578989,287.655183 560.12,288.53 L559.03,293.08 L559.03,293.08 L559.03,293.16 L559.03,293.16 L559.03,293.24 L559.03,293.24 C559.063748,293.365013 559.16376,293.461178 559.29,293.49 L559.63,293.58 C559.681319,294.357416 559.603602,295.137966 559.4,295.89 C559.171768,297.009898 559.041277,298.14751 559.01,299.29 C559.09,299.86 559.23,302.83 559.3,304.24 C559.178673,304.721442 559.081881,305.208737 559.01,305.7 L557.4,315.36 C557.4,315.36 556.2,323.09 556.26,325.43 L556.05,326.78 C556.05,326.78 552.78,330.88 553.74,331.46 C554.7,332.04 556.18,332.29 557.59,330.11 C557.781111,329.596224 558.08925,329.134016 558.49,328.76 C558.814941,328.479 558.982814,328.057451 558.94,327.63 L558.84,326.63 L559.01,326.69 L559.01,326.69 L559.11,326.69 C559.11,326.69 560.72,321.4 560.54,317.69 C560.54,317.69 563.54,307.07 565.79,305.4 L565.79,305.33 L566,305.23 L566.48,315.52 L565.99,326.86 L565.88,327.54 C565.88,327.54 562.61,331.64 563.57,332.22 C564.53,332.8 566.01,333.05 567.42,330.87 C567.611111,330.356224 567.91925,329.894016 568.32,329.52 C568.644941,329.239 568.812814,328.817451 568.77,328.39 L568.62,326.89 C569.18,324.98 570.62,319.48 570.03,316.29 L571.03,309.51 C572.03,308.38 571.9,305.51 571.9,305.51 C572.69,303.86 572.9,297.39 572.9,297.39 L573.1,294.19 C573.249731,294.177289 573.400269,294.177289 573.55,294.19 L573.65,294.19 L573.71,294.19 L573.71,294.13 C573.738872,294.104751 573.762635,294.074199 573.78,294.04 L573.84,294.04 L573.84,293.96 L573.84,293.96 L573.83,293.95 Z M571.03,300.45 C570.94,300.23 570.84,300.01 570.73,299.79 L570.65,299.79 L570.65,299.71 C570.647258,299.683404 570.647258,299.656596 570.65,299.63 L570.65,299.55 C570.696964,299.442659 570.737045,299.332436 570.77,299.22 C570.89923,299.013434 570.96527,298.773602 570.96,298.53 C571.077726,299.163064 571.101314,299.810044 571.03,300.45 Z M570.73,297.71 L570.53,295.57 L570.59,295.4 L570.86,298.12 L570.73,297.71 Z M561.25,298 C561.11091,298.159308 561.045543,298.369936 561.07,298.58 C561.07,298.58 561.07,298.58 561.07,298.65 C561.07137,298.866389 561.101638,299.081626 561.16,299.29 L560.85,300.63 L560.85,298.07 C561.055404,297.800092 561.236131,297.512267 561.39,297.21 C561.421404,297.481352 561.372738,297.755964 561.25,298 L561.25,298 Z" id="Shape" fill="url(#linearGradient-3)" fill-rule="nonzero"></path>
                <path d="M563.27,281.48 C562.902019,282.283278 562.766894,283.173716 562.88,284.05 C562.986295,284.934776 562.654066,285.815742 561.99,286.41 C562.281133,286.531668 562.608867,286.531668 562.9,286.41 C563.186397,286.289637 563.45544,286.131574 563.7,285.94 C563.928688,285.801533 564.123456,285.613599 564.27,285.39 C564.408279,285.044382 564.453116,284.668445 564.4,284.3 C564.401435,283.646363 564.458306,282.994025 564.57,282.35 C564.63,281.95 565.01,280.86 564.57,280.65 C564.13,280.44 563.46,281.18 563.27,281.48 Z" id="Path" fill="#72351C" fill-rule="nonzero"></path>
                <path d="M556.66,323.99 L556.35,325.99 C556.35,325.99 553.2,329.99 554.13,330.5 C555.06,331.01 556.48,331.3 557.84,329.2 C558.022129,328.705916 558.316531,328.260889 558.7,327.9 L558.7,327.9 C559.012397,327.62845 559.172859,327.221697 559.13,326.81 L558.82,323.76 L556.66,323.99 Z" id="Path" fill="#333333" fill-rule="nonzero"></path>
                <path d="M566.14,324.78 L565.83,326.78 C565.83,326.78 562.68,330.78 563.61,331.29 C564.54,331.8 565.96,332.09 567.32,329.99 C567.502129,329.495916 567.796531,329.050889 568.18,328.69 L568.18,328.69 C568.492397,328.41845 568.652859,328.011697 568.61,327.6 L568.3,324.55 L566.14,324.78 Z" id="Path" fill="#333333" fill-rule="nonzero"></path>
                <path d="M561.23,300.87 C561.23,300.87 559.75,301.94 559.23,305.66 L557.68,314.97 C557.68,314.97 556.37,323.41 556.61,325.03 L559.23,325.93 C559.23,325.93 560.78,320.83 560.61,317.28 C560.61,317.28 563.76,306.06 565.97,305.28 L566.44,315.19 L565.94,326.34 L568.18,326.79 C568.18,326.79 570.45,319.69 569.73,315.93 L570.9,307.93 C570.9,307.93 572.24,303.66 570.38,299.93 L561.23,300.87 Z" id="Path" fill="#4D8AF0" fill-rule="nonzero"></path>
                <g id="Group" opacity="0.1" transform="translate(559.000000, 299.000000)" fill="#000000" fill-rule="nonzero">
                    <path d="M6.74,6.43 L6.74,6.26 C4.53,7.05 1.38,18.26 1.38,18.26 C1.32637833,21.1618904 0.872083174,24.0424581 0.03,26.82 L0.31,26.92 C0.31,26.92 1.86,21.82 1.69,18.27 C1.68,18.28 4.56,8.08 6.74,6.43 Z" id="Path"></path>
                    <path d="M11.47,0.98 L11.17,0.98 C12.245132,3.48682624 12.4217499,6.28798575 11.67,8.91 L10.5,16.91 C11.19,20.47 9.18,27.02 8.97,27.71 L9.26,27.77 C9.26,27.77 11.53,20.67 10.81,16.91 L11.98,8.91 C11.98,8.91 13.33,4.66 11.47,0.98 Z" id="Path"></path>
                </g>
                <path d="M559.22,293.58 C559.21641,293.738085 559.325463,293.876499 559.48,293.91 C560.21152,294.093751 560.894087,294.435035 561.48,294.91 C562.58,295.77 560.31,293.19 560.31,293.19 L559.55,293.36 L559.24,293.64 L559.22,293.58 Z" id="Path" fill="#F55F44" fill-rule="nonzero"></path>
                <path d="M559.22,293.58 C559.21641,293.738085 559.325463,293.876499 559.48,293.91 C560.21152,294.093751 560.894087,294.435035 561.48,294.91 C562.58,295.77 560.31,293.19 560.31,293.19 L559.55,293.36 L559.24,293.64 L559.22,293.58 Z" id="Path" fill="#000000" fill-rule="nonzero" opacity="0.1"></path>
                <path d="M570.04,295.86 C570.96497,295.203245 572.035698,294.781131 573.16,294.63 C573.320163,294.63 573.45,294.500163 573.45,294.34 L573.45,294.34 C573.45,294.34 570.83,293.31 570.04,295.86 Z" id="Path" fill="#F55F44" fill-rule="nonzero"></path>
                <path d="M573.45,294.33 C573.45,294.33 570.83,293.33 570.04,295.85 C570.04,295.85 571.97,294.37 573.31,294.61" id="Path" fill="#000000" fill-rule="nonzero" opacity="0.1"></path>
                <circle id="Oval" fill="#72351C" fill-rule="nonzero" cx="567" cy="282.28" r="3.41"></circle>
                <path d="M564.65,284.67 C564.65,284.67 565.13,286.67 564.65,287.08 C564.17,287.49 563.2,288.25 563.93,288.84 C564.66,289.43 567.27,290.43 568.14,289.94 C569.01,289.45 570,289.6 569.76,288.6 C569.52,287.6 567.62,287.81 567.59,282.84 L564.65,284.67 Z" id="Path" fill="#FDB797" fill-rule="nonzero"></path>
                <path d="M559.82,292.98 C559.891384,294.064537 559.820787,295.153752 559.61,296.22 C559.388965,297.296953 559.261822,298.391059 559.23,299.49 C559.33,300.21 559.54,304.97 559.54,304.97 C559.54,304.97 559.16,309.14 561.19,308.76 C563.22,308.38 560.88,304 560.88,304 L560.98,298.31 C561.530599,297.562078 561.875404,296.682825 561.98,295.76 C562.13,294.39 559.82,292.98 559.82,292.98 Z" id="Path" fill="#000000" fill-rule="nonzero" opacity="0.1"></path>
                <path d="M559.79,292.98 C559.861384,294.064537 559.790787,295.153752 559.58,296.22 C559.358965,297.296953 559.231822,298.391059 559.2,299.49 C559.3,300.21 559.51,304.97 559.51,304.97 C559.51,304.97 559.13,309.14 561.16,308.76 C563.19,308.38 560.85,304 560.85,304 L560.95,298.31 C561.500599,297.562078 561.845404,296.682825 561.95,295.76 C562.09,294.39 559.79,292.98 559.79,292.98 Z" id="Path" fill="#FDB797" fill-rule="nonzero"></path>
                <path d="M572.78,293.29 L572.5,297.74 C572.5,297.74 572.33,303.98 571.57,305.56 C571.57,305.56 571.78,309.94 569.74,309.83 C567.7,309.72 570.08,305.04 570.08,305.04 C570.08,305.04 571.17,300.17 570.61,298.63 L570.08,293.29 L572.78,293.29 Z" id="Path" fill="#000000" fill-rule="nonzero" opacity="0.1"></path>
                <path d="M572.81,293.29 L572.53,297.74 C572.53,297.74 572.36,303.98 571.6,305.56 C571.6,305.56 571.81,309.94 569.77,309.83 C567.73,309.72 570.11,305.04 570.11,305.04 C570.11,305.04 571.2,300.17 570.64,298.63 L570.11,293.29 L572.81,293.29 Z" id="Path" fill="#FDB797" fill-rule="nonzero"></path>
                <path d="M566.2,288.98 C566.2,288.98 567.85,289.74 568.75,287.48 L572.1,289.12 C572.516356,289.515804 572.751438,290.065534 572.75,290.64 L573.47,294.5 C573.47,294.5 571.02,293.67 570.26,295.95 L570.47,298.12 L570.47,298.12 C570.627868,298.65582 570.58885,299.230438 570.36,299.74 C570.319343,299.832392 570.319343,299.937608 570.36,300.03 C570.461471,300.350383 570.405003,300.699903 570.207807,300.972034 C570.010611,301.244165 569.696051,301.406662 569.36,301.41 C568.459672,301.420355 567.561027,301.490509 566.67,301.62 C565.95,301.83 563.77,301.21 563.05,301.62 C562.33,302.03 560.81,301.31 560.81,301.31 L561.22,299.55 C561.22,299.55 560.94,298.69 561.29,298.38 C561.64,298.07 561.43,295.38 561.12,294.62 C561.12,294.62 559.88,293.45 559.12,293.62 L560.12,289.17 C560.558974,288.325701 561.409983,287.774825 562.36,287.72 C563.135174,287.789401 563.908498,287.568451 564.53,287.1 C564.53,287.1 563.78,288.74 566.2,288.98 Z" id="Path" fill="#000000" fill-rule="nonzero" opacity="0.1"></path>
                <path d="M566.37,288.9 C566.82,289.02 568.02,289.15 568.74,287.34 L572.09,288.98 C572.506356,289.375804 572.741438,289.925534 572.74,290.5 L573.46,294.36 C573.46,294.36 571.01,293.53 570.25,295.81 L570.46,297.98 L570.6,298.41 C570.721968,298.782798 570.658818,299.191414 570.43,299.51 C570.333617,299.619712 570.306603,299.774077 570.36,299.91 C570.461471,300.230383 570.405003,300.579903 570.207807,300.852034 C570.010611,301.124165 569.696051,301.286662 569.36,301.29 C568.459672,301.300355 567.561027,301.370509 566.67,301.5 C565.95,301.71 563.77,301.09 563.05,301.5 C562.33,301.91 560.81,301.19 560.81,301.19 L561.22,299.43 C561.22,299.43 560.94,298.57 561.29,298.26 C561.64,297.95 561.43,295.26 561.12,294.5 C561.12,294.5 559.88,293.33 559.12,293.5 L560.12,289.05 C560.558974,288.205701 561.409983,287.654825 562.36,287.6 C563.135174,287.669401 563.908498,287.448451 564.53,286.98 C564.53,286.98 563.72,288.46 565.85,288.78 L566.37,288.9 Z" id="Path" fill="#000000" fill-rule="nonzero" opacity="0.1"></path>
                <path d="M566.37,288.97 C566.82,289.09 568.02,289.22 568.74,287.41 L572.09,289.05 C572.506356,289.445804 572.741438,289.995534 572.74,290.57 L573.46,294.43 C573.46,294.43 571.01,293.6 570.25,295.88 L570.46,298.05 L570.46,298.05 C570.617868,298.58582 570.57885,299.160438 570.35,299.67 C570.309343,299.762392 570.309343,299.867608 570.35,299.96 C570.451471,300.280383 570.395003,300.629903 570.197807,300.902034 C570.000611,301.174165 569.686051,301.336662 569.35,301.34 C568.449672,301.350355 567.551027,301.420509 566.66,301.55 C565.94,301.76 563.76,301.14 563.04,301.55 C562.32,301.96 560.8,301.24 560.8,301.24 L561.21,299.48 C561.21,299.48 560.93,298.62 561.28,298.31 C561.63,298 561.42,295.31 561.11,294.55 C561.11,294.55 559.87,293.38 559.11,293.55 L560.11,289.1 C560.548974,288.255701 561.399983,287.704825 562.35,287.65 C563.125174,287.719401 563.898498,287.498451 564.52,287.03 C564.52,287.03 563.71,288.51 565.84,288.83 L566.37,288.97 Z" id="Path" fill="#F55F44" fill-rule="nonzero"></path>
                <path d="M567.64,283.02 L564.71,284.85 C564.784397,285.180075 564.841144,285.513882 564.88,285.85 C565.21405,285.982995 565.57045,286.050881 565.93,286.050008 C566.645803,285.999786 567.319898,285.694669 567.83,285.19 C567.697486,284.474398 567.633861,283.747742 567.64,283.02 Z" id="Path" fill="#000000" fill-rule="nonzero" opacity="0.1"></path>
                <circle id="Oval" fill="#FDB797" fill-rule="nonzero" cx="565.87" cy="283" r="2.83"></circle>
                <circle id="Oval" fill="#72351C" fill-rule="nonzero" cx="570.04" cy="279.59" r="1.24"></circle>
                <path d="M570.28,280.9 C569.628828,280.901717 569.08726,280.399457 569.04,279.75 C569.04,279.75 569.04,279.81 569.04,279.84 C569.04,280.524833 569.595167,281.08 570.28,281.08 C570.964833,281.08 571.52,280.524833 571.52,279.84 C571.52,279.84 571.52,279.78 571.52,279.75 C571.47274,280.399457 570.931172,280.901717 570.28,280.9 L570.28,280.9 Z" id="Path" fill="#72351C" fill-rule="nonzero"></path>
                <path d="M569.57,282.08 C568.931915,281.958548 568.495686,281.365275 568.57,280.72 L568.57,280.8 C568.445736,281.473787 568.891213,282.120736 569.565,282.245 C570.238787,282.369264 570.885736,281.923787 571.01,281.25 L571.01,281.16 C570.851636,281.801244 570.218419,282.205799 569.57,282.08 L569.57,282.08 Z" id="Path" fill="#72351C" fill-rule="nonzero"></path>
                <path d="M568.61,285.08 C567.971915,284.958548 567.535686,284.365275 567.61,283.72 L567.61,283.8 C567.485736,284.473787 567.931213,285.120736 568.605,285.245 C569.278787,285.369264 569.925736,284.923787 570.05,284.25 L570.05,284.16 C569.891636,284.801244 569.258419,285.205799 568.61,285.08 L568.61,285.08 Z" id="Path" fill="#72351C" fill-rule="nonzero"></path>
                <path d="M570.28,280.24 C569.62523,280.241364 569.082242,279.733407 569.04,279.08 C569.04,279.08 569.04,279.14 569.04,279.17 C569.04,279.854833 569.595167,280.41 570.28,280.41 C570.964833,280.41 571.52,279.854833 571.52,279.17 C571.52,279.17 571.52,279.11 571.52,279.08 C571.477758,279.733407 570.93477,280.241364 570.28,280.24 L570.28,280.24 Z" id="Path" fill="#72351C" fill-rule="nonzero"></path>
                <path d="M568.55,279.57 C568.554236,278.91546 569.06649,278.376937 569.72,278.34 L569.63,278.34 C568.945167,278.34 568.39,278.895167 568.39,279.58 C568.39,280.264833 568.945167,280.82 569.63,280.82 L569.72,280.82 C569.058765,280.782644 568.543605,280.232258 568.55,279.57 L568.55,279.57 Z" id="Path" fill="#72351C" fill-rule="nonzero"></path>
                <path d="M569.8,291.27 C569.93042,291.883141 569.93042,292.516859 569.8,293.13 C569.8,293.13 569.63,294.75 569.9,295.03" id="Path" fill="#000000" fill-rule="nonzero" opacity="0.1"></path>
                <path d="M561.42,291.65 C561.55042,292.263141 561.55042,292.896859 561.42,293.51 C561.42,293.51 561.25,295.13 561.52,295.41" id="Path" fill="#000000" fill-rule="nonzero" opacity="0.1"></path>
                <path d="M561.35,298.3 C561.61831,298.396166 561.91169,298.396166 562.18,298.3 C562.505977,298.200962 562.854023,298.200962 563.18,298.3" id="Path" fill="#000000" fill-rule="nonzero" opacity="0.1"></path>
                <path d="M561.77,295.86 C562.744045,295.906601 563.717328,295.753462 564.63,295.41 C564.63,295.41 568.15,296.27 569.15,295.65" id="Path" fill="#000000" fill-rule="nonzero" opacity="0.1"></path>
                <rect id="Rectangle" fill="#FDB797" fill-rule="nonzero" x="559.21" y="310.72" width="2.17" height="1.34" rx="0.67"></rect>
                <polygon id="Path" fill="#F0E4E4" fill-rule="nonzero" points="559.22 311.08 560.38 311.03 561.38 311.19 561.03 311.19"></polygon>
                <polygon id="Path" fill="#F0E4E4" fill-rule="nonzero" points="567.04 305.47 568.2 305.47 569.2 305.57 568.85 305.57"></polygon>
                <polygon id="Path" fill="#F0E4E4" fill-rule="nonzero" points="567.04 305.71 568.2 305.71 569.2 305.81 568.85 305.81"></polygon>
                <polygon id="Path" fill="#F0E4E4" fill-rule="nonzero" points="567.04 305.96 568.2 305.96 569.2 306.06 568.85 306.06"></polygon>
                <polygon id="Path" fill="#F0E4E4" fill-rule="nonzero" points="567.04 306.2 568.2 306.2 569.2 306.3 568.85 306.3"></polygon>
                <polygon id="Path" fill="#F0E4E4" fill-rule="nonzero" points="559.22 312.01 560.38 312.01 561.38 312.13 561.03 312.13"></polygon>
                <polygon id="Path" fill="#F0E4E4" fill-rule="nonzero" points="559.22 311.89 560.38 311.89 561.38 312.01 561.03 312.01"></polygon>
                <polygon id="Path" fill="#F0E4E4" fill-rule="nonzero" points="559.22 311.77 560.38 311.77 561.38 311.89 561.03 311.89"></polygon>
                <polygon id="Path" fill="#F0E4E4" fill-rule="nonzero" points="559.22 311.65 560.38 311.65 561.38 311.77 561.03 311.77"></polygon>
                <polygon id="Path" fill="#F0E4E4" fill-rule="nonzero" points="559.22 310.9 560.38 310.85 561.38 311.01 561.03 311.01"></polygon>
                <polygon id="Path" fill="#F0E4E4" fill-rule="nonzero" points="559.22 310.69 560.38 310.64 561.38 310.8 561.03 310.8"></polygon>
                <path d="M566.35,281.19 C566.239141,282.246952 566.376096,283.315197 566.75,284.31 C567.125155,285.286431 567.070683,286.375861 566.6,287.31 C566.911636,287.381574 567.238709,287.299806 567.48,287.09 C567.72854,286.872324 567.944126,286.619684 568.12,286.34 C568.305792,286.111852 568.438957,285.845522 568.51,285.56 C568.540319,285.110683 568.472059,284.660169 568.31,284.24 C568.116022,283.474038 567.975682,282.695483 567.89,281.91 C567.83,281.43 567.89,280.05 567.35,279.91 C566.81,279.77 566.45,280.79 566.35,281.19 Z" id="Path" fill="#000000" fill-rule="nonzero" opacity="0.1"></path>
                <path d="M566.42,281.16 C566.309141,282.216952 566.446096,283.285197 566.82,284.28 C567.195155,285.256431 567.140683,286.345861 566.67,287.28 C566.981636,287.351574 567.308709,287.269806 567.55,287.06 C567.79854,286.842324 568.014126,286.589684 568.19,286.31 C568.375792,286.081852 568.508957,285.815522 568.58,285.53 C568.610319,285.080683 568.542059,284.630169 568.38,284.21 C568.186022,283.444038 568.045682,282.665483 567.96,281.88 C567.9,281.4 567.96,280.02 567.42,279.88 C566.88,279.74 566.52,280.75 566.42,281.16 Z" id="Path" fill="#72351C" fill-rule="nonzero"></path>
                <path d="M565.2,281.9 C565.44,282.15 565.49,282.52 565.69,282.8 C566.049844,283.186047 566.563184,283.391383 567.09,283.36 C567.232282,283.352478 567.37395,283.383576 567.5,283.45 C567.72,283.59 567.73,283.91 567.87,284.13 C568.021309,284.292209 568.233175,284.384312 568.455,284.384312 C568.676825,284.384312 568.888691,284.292209 569.04,284.13 C569.328784,283.784986 569.487955,283.349919 569.49,282.9 C569.538167,282.404501 569.538167,281.905499 569.49,281.41 C569.476514,280.842579 569.251873,280.300589 568.86,279.89 C568.531761,279.646898 568.151946,279.482654 567.75,279.41 C567.201516,279.216258 566.611469,279.171401 566.04,279.28 C565.762819,279.372348 565.500187,279.503664 565.26,279.67 C564.92,279.89 564.586667,280.113333 564.26,280.34 C563.89,280.6 563.19,281.12 563.87,281.4 C564.3,281.6 564.84,281.51 565.2,281.9 Z" id="Path" fill="#000000" fill-rule="nonzero" opacity="0.1"></path>
                <path d="M565.27,281.86 C565.51,282.11 565.56,282.48 565.76,282.76 C566.119844,283.146047 566.633184,283.351383 567.16,283.32 C567.302282,283.312478 567.44395,283.343576 567.57,283.41 C567.79,283.55 567.8,283.87 567.94,284.09 C568.091309,284.252209 568.303175,284.344312 568.525,284.344312 C568.746825,284.344312 568.958691,284.252209 569.11,284.09 C569.398784,283.744986 569.557955,283.309919 569.56,282.86 C569.608167,282.364501 569.608167,281.865499 569.56,281.37 C569.546514,280.802579 569.321873,280.260589 568.93,279.85 C568.601761,279.606898 568.221946,279.442654 567.82,279.37 C567.271516,279.176258 566.681469,279.131401 566.11,279.24 C565.832819,279.332348 565.570187,279.463664 565.33,279.63 C564.99,279.85 564.656667,280.073333 564.33,280.3 C563.96,280.56 563.26,281.08 563.94,281.36 C564.37,281.56 564.94,281.48 565.27,281.86 Z" id="Path" fill="#72351C" fill-rule="nonzero"></path>
                <polygon id="Path" fill="#F0E4E4" fill-rule="nonzero" points="567.11 305.47 568.27 305.47 569.27 305.57 568.94 305.57"></polygon>
                <polygon id="Path" fill="#F0E4E4" fill-rule="nonzero" points="567.11 305.71 568.27 305.71 569.27 305.81 568.94 305.81"></polygon>
                <polygon id="Path" fill="#F0E4E4" fill-rule="nonzero" points="567.11 305.96 568.27 305.96 569.27 306.06 568.94 306.06"></polygon>
                <polygon id="Path" fill="#F0E4E4" fill-rule="nonzero" points="567.11 306.2 568.27 306.2 569.27 306.3 568.94 306.3"></polygon>
                <polygon id="Path" fill="#F0E4E4" fill-rule="nonzero" points="566.61 319.47 567.77 319.47 568.77 319.57 568.42 319.57"></polygon>
                <polygon id="Path" fill="#F0E4E4" fill-rule="nonzero" points="566.61 319.72 567.77 319.72 568.77 319.82 568.42 319.82"></polygon>
                <polygon id="Path" fill="#F0E4E4" fill-rule="nonzero" points="566.61 319.96 567.77 319.96 568.77 320.06 568.42 320.06"></polygon>
                <polygon id="Path" fill="#F0E4E4" fill-rule="nonzero" points="566.61 320.2 567.77 320.2 568.77 320.3 568.42 320.3"></polygon>
            </g>
        </g>
    </g>
</svg>